<svg width="520" height="120" viewBox="0 0 520 120" fill="none" xmlns="http://www.w3.org/2000/svg">
  <rect width="520" height="120" rx="24" fill="#07101A"/>
  <rect x="34" y="30" width="452" height="60" rx="30" stroke="url(#a)" stroke-opacity=".55"/>
  <path d="M69 42H88.7C101.7 42 108.7 48.2 108.7 58.7C108.7 69.3 101.7 75.5 88.7 75.5H78.4V93H69V42ZM87.7 67.8C94.8 67.8 99.1 64.6 99.1 58.7C99.1 52.9 94.8 49.7 87.7 49.7H78.4V67.8H87.7ZM115.3 52.1H124.5V60.2C127 54.8 131.5 51.8 137.7 51.8C138.8 51.8 140.1 51.9 140.8 52.2V60.8C139.6 60.5 138.2 60.3 136.7 60.3C129.2 60.3 124.5 65.5 124.5 73.6V93H115.3V52.1ZM323.6 93.8C311.1 93.8 302.5 85 302.5 72.6C302.5 60.2 311 51.3 323.1 51.3C334.7 51.3 342.9 59.5 342.9 71.4V74.8H311.5C312.2 81.4 317.1 85.8 323.9 85.8C328.8 85.8 332.9 83.7 335.2 80.2L342 84.3C338.3 90.3 331.8 93.8 323.6 93.8ZM311.8 67.9H333.8C333 62 328.8 58.9 323.2 58.9C317.5 58.9 313.1 62.3 311.8 67.9ZM350.8 52.1H360V60.2C362.5 54.8 367 51.8 373.2 51.8C374.4 51.8 375.6 51.9 376.3 52.2V60.8C375.1 60.5 373.7 60.3 372.2 60.3C364.7 60.3 360 65.5 360 73.6V93H350.8V52.1ZM384 52.1H393.2V58.1C396.4 53.6 400.8 51.3 406 51.3C411.9 51.3 416 53.7 418.6 58.4C421.9 53.8 426.5 51.3 432.7 51.3C442 51.3 448.2 57.4 448.2 67.5V93H439V69.7C439 63.4 435.9 59.9 430.4 59.9C424.2 59.9 420.3 64.4 420.3 71.4V93H411.1V69.7C411.1 63.4 408 59.9 402.5 59.9C396.4 59.9 393.2 64.4 393.2 71.4V93H384V52.1Z" fill="url(#b)"/>
  <path d="M161 52H170L182 83L194 52H202L214 83L226 52H235L219 93H210L198 63L186 93H177L161 52Z" fill="url(#b)"/>
  <path d="M239 52H248V58C251 53.7 255.6 51.3 261.6 51.3C271.8 51.3 278.5 58.2 278.5 69.3V93H269.3V70.6C269.3 63.4 265.6 59.6 259.2 59.6C252 59.6 248 64.5 248 72.6V93H239V52Z" fill="url(#b)"/>
  <defs>
    <linearGradient id="a" x1="34" y1="30" x2="486" y2="90" gradientUnits="userSpaceOnUse">
      <stop stop-color="#58F2FF"/>
      <stop offset="1" stop-color="#FF5D9E"/>
    </linearGradient>
    <linearGradient id="b" x1="69" y1="42" x2="448" y2="94" gradientUnits="userSpaceOnUse">
      <stop stop-color="#E9FDFF"/>
      <stop offset="1" stop-color="#BEE2FF"/>
    </linearGradient>
  </defs>
</svg>
