<svg width="1024" height="1024" viewBox="0 0 1024 1024" fill="none" xmlns="http://www.w3.org/2000/svg">
  <rect width="1024" height="1024" fill="#01030A"/>
  <g opacity=".18" fill="#FFFFFF">
    <circle cx="62" cy="94" r="1"/><circle cx="182" cy="212" r="1"/><circle cx="328" cy="88" r="1"/><circle cx="516" cy="160" r="1"/><circle cx="734" cy="102" r="1"/><circle cx="912" cy="224" r="1"/>
    <circle cx="118" cy="392" r="1"/><circle cx="246" cy="344" r="1"/><circle cx="402" cy="486" r="1"/><circle cx="610" cy="402" r="1"/><circle cx="760" cy="520" r="1"/><circle cx="926" cy="454" r="1"/>
    <circle cx="86" cy="702" r="1"/><circle cx="276" cy="662" r="1"/><circle cx="420" cy="822" r="1"/><circle cx="624" cy="742" r="1"/><circle cx="814" cy="856" r="1"/><circle cx="964" cy="734" r="1"/>
  </g>
  <g opacity=".08" fill="#58F2FF">
    <circle cx="140" cy="128" r="2"/><circle cx="382" cy="264" r="2"/><circle cx="612" cy="130" r="2"/><circle cx="842" cy="302" r="2"/>
    <circle cx="226" cy="582" r="2"/><circle cx="512" cy="468" r="2"/><circle cx="744" cy="630" r="2"/><circle cx="900" cy="520" r="2"/>
  </g>
</svg>
